# xmcd
#
# Track frame offsets:
#	150
#	29464
#	58243
#	73800
#	89313
#	107898
#	127420
#	141047
#	158931
#	180042
#	202166
#	216308
#	234594
#
# Disc length: 3449 seconds
#
# Revision: 0
# Processed by: cddbd v1.5.2PL0 Copyright (c) Steve Scherf et al.
# Submitted via: audiograbber 1.83.01
#
DISCID=c90d770d
DTITLE=Jamey Johnson - The Guitar Song CD2
DYEAR=2010
DGENRE=Country
TTITLE0=By The Seat Of Your Pants
TTITLE1=California Riots
TTITLE2=Dog In The Yard
TTITLE3=The Guitar Song (Feat. Bill Anderson)
TTITLE4=That's Why I Write Songs
TTITLE5=Macon
TTITLE6=Thankful For The Rain
TTITLE7=Good Morning Sunrise
TTITLE8=Front Porch Swing Afternoon
TTITLE9=I Remember You
TTITLE10=Good Time Ain't What They Used To Be
TTITLE11=For The Good Times
TTITLE12=My Way To You
EXTD=
EXTT0=
EXTT1=
EXTT2=
EXTT3=
EXTT4=
EXTT5=
EXTT6=
EXTT7=
EXTT8=
EXTT9=
EXTT10=
EXTT11=
EXTT12=
PLAYORDER=
